<mxfile host="app.diagrams.net" modified="2024-04-26T23:26:53.412Z" agent="Mozilla/5.0 (Windows NT 10.0; Win64; x64; rv:126.0) Gecko/20100101 Firefox/126.0" version="24.3.0" etag="sET6z9Zksp01JYCb3m8u" type="github">
  <diagram name="第 1 页" id="dRDt1VeGtY57YDfJsuz8">
    <mxGraphModel>
      <root>
        <mxCell id="0" />
        <mxCell id="1" parent="0" />
      </root>
    </mxGraphModel>
  </diagram>
</mxfile>
